<svg xmlns="http://www.w3.org/2000/svg" xml:space="preserve" id="Layer_1" x="0" y="0" style="enable-background:new 0 0 1000 1000" version="1.1" viewBox="0 0 1000 1000"><style>.st0{fill-rule:evenodd;clip-rule:evenodd}</style><path d="M853.5 146.5C763 56 638 0 500 0S237 56 146.6 146.5C56.1 236.9.1 361.9 0 500c0 46 6.4 90.8 18.2 133.7 10.6 38.2 25.5 74.5 44.2 108.2L1.8 947.7C-.4 955-.6 963 1.7 970.9c6.3 21.4 28.7 33.6 50.2 27.3l206.2-60.7c33.7 18.7 70 33.6 108.2 44.2C409.2 993.6 454 1000 500 1000c138 0 263-56 353.5-146.5C944 763.1 1000 638 1000 500s-56-263-146.5-353.5zm-57.1 649.7C720.5 872.1 615.8 919 500.1 919c-39.2 0-76.7-5.3-112.2-15.1-36.6-10.2-71.4-25.3-103.6-44.7-10.7-6.5-23.3-7.3-34.3-3.5l-149.7 44.1L145 748c3.3-11.3 1.5-22.8-4.2-32.2-19.3-32.2-34.5-66.9-44.7-103.6C86.3 576.8 81 539.2 81 500c0-115.7 46.9-220.4 122.7-296.2C279.6 127.9 384.4 81 500 81c115.7 0 220.4 46.9 296.2 122.7h.1C872.1 279.5 919 384.3 919 499.9s-46.8 220.5-122.6 296.3z" class="st0"/><path d="M431.6 276.1c0-19.5 7-36.2 20.6-50.1 13.8-13.9 30.4-20.9 49.9-20.9s36.2 7 49.9 20.9c13.7 13.9 20.5 30.6 20.5 50.1s-7 36-20.6 49.8c-13.7 13.7-30.4 20.6-49.7 20.6-19.3 0-35.7-7-49.7-20.9-13.9-13.8-20.9-30.4-20.9-49.5zM375 484.7v-93.3h190.1V702h60v92.9H375V702h61.4V484.7z" class="st0"/></svg>