<svg xmlns="http://www.w3.org/2000/svg" xml:space="preserve" style="enable-background:new 0 0 1000 1000" viewBox="0 0 1000 1000"><path d="M898.2 295.5c39.1-29.4 74.4-64.6 101.8-105.7-35.2 15.7-76.3 27.4-117.4 31.3 43.1-25.4 74.4-64.6 90-113.5-39.1 23.5-84.1 41.1-129.2 50.9-39.1-41.1-92-64.6-150.7-64.6-113.5 0-205.5 92-205.5 205.5 0 15.7 2 31.3 5.9 47-170.3-9.8-322.9-92-424.7-215.3C50.8 160.5 41 195.7 41 234.8c0 70.5 35.2 133.1 92 170.3-33.3-2-66.5-9.8-93.9-25.4v2c0 99.8 70.5 182 164.4 201.6-15.7 3.9-35.2 7.8-52.8 7.8-13.7 0-25.4-2-39.1-3.9C137 669.3 213.3 728 303.3 729.9 232.9 784.7 144.8 818 48.9 818c-17.6 0-33.3-2-48.9-3.9 90 58.7 197.7 92 315.1 92 377.7 0 583.2-311.2 583.2-583.2-.1-9.8-.1-17.6-.1-27.4z" style="fill:#020202"/></svg>