<svg xmlns="http://www.w3.org/2000/svg" xml:space="preserve" style="enable-background:new 0 0 1000 1000" viewBox="0 0 1000 1000"><path d="m74.1 141.7 347.6 377.5c19.8 21.4 48.3 33.8 78 33.8 29.7 0 58.2-12.2 78-33.8l341.4-371c2.8-3 6.2-5.4 9.6-7.3-14.4-6-30.5-9.5-47.2-9.5H117.9c-16.1 0-31.4 3-45.2 8.7.6.5 1.1 1.1 1.7 1.6h-.3z"/><path d="M981.6 184.5c-1.4 3.8-3.7 7.6-6.8 10.8l-341.4 371c-33.9 36.8-82.5 57.9-133.7 57.9-51.2 0-99.8-21.1-133.7-57.9L18.7 188.6s-1.1-1.6-1.7-2.4C6.3 203.2 0 223 0 244.4v511.2c0 62.4 52.9 113 118.2 113h763.7c65.3 0 118.1-50.6 118.1-113.1V244.6c0-22.2-6.8-42.5-18.1-60.1h-.3z"/></svg>