<svg xmlns="http://www.w3.org/2000/svg" xml:space="preserve" style="enable-background:new 0 0 1000 1000" viewBox="0 0 1000 1000"><path d="M978.1 260.5c-11-43.9-45.7-78.6-87.8-89.6C811.7 149 500.9 149 500.9 149s-312.6 0-391.2 21.9c-42 11-76.8 45.7-87.8 89.6C0 337.3 0 501.8 0 501.8s0 162.7 21.9 241.3c11 43.9 45.7 76.8 87.8 87.8C188.3 851 500.9 851 500.9 851s310.8 0 389.4-20.1c42-11 76.8-43.9 87.8-87.8 21.9-78.6 21.9-241.3 21.9-241.3s0-164.5-21.9-241.3zM398.5 649.9V353.7l259.6 148.1-259.6 148.1z"/></svg>