<svg xmlns="http://www.w3.org/2000/svg" xml:space="preserve" style="enable-background:new 0 0 1000 1000" viewBox="0 0 1000 1000"><path d="M501.1 242.2c-142.9 0-256.7 116.1-256.7 256.7 0 142.9 113.8 256.7 256.7 256.7 140.6 0 256.7-113.8 256.7-256.7 0-140.6-116.1-256.7-256.7-256.7zm0 424.1c-91.5 0-167.4-73.7-167.4-167.4 0-91.5 73.7-165.2 167.4-165.2 91.5 0 165.2 73.7 165.2 165.2 0 93.7-73.7 167.4-165.2 167.4zm325.9-433c0-33.5-26.8-60.3-60.3-60.3s-60.3 26.8-60.3 60.3 26.8 60.3 60.3 60.3c33.5-.1 60.3-26.9 60.3-60.3zm169.7 60.2c-4.5-80.4-22.3-151.8-80.4-209.8-58-58-129.5-75.9-209.8-80.4-82.6-4.5-330.4-4.5-412.9 0C213.2 7.8 144 25.7 83.7 83.7c-58 58-75.9 129.5-80.4 209.8-4.5 82.6-4.5 330.4 0 412.9C7.8 786.8 25.7 856 83.7 916.3c60.3 58 129.5 75.9 209.8 80.4 82.6 4.5 330.4 4.5 412.9 0 80.4-4.5 151.8-22.3 209.8-80.4 58-60.3 75.9-129.5 80.4-209.8 4.5-82.6 4.5-330.4.1-413zm-107.2 500c-15.6 44.6-51.3 78.1-93.8 96-67 26.8-223.2 20.1-294.6 20.1-73.7 0-229.9 6.7-294.6-20.1-44.6-17.9-78.1-51.3-96-96-26.8-64.7-20.1-221-20.1-294.6 0-71.4-6.7-227.7 20.1-294.6 17.9-42.4 51.3-75.9 96-93.8 64.7-26.8 221-20.1 294.6-20.1 71.4 0 227.7-6.7 294.6 20.1 42.4 15.6 75.9 51.3 93.8 93.8 26.8 67 20.1 223.2 20.1 294.6 0 73.6 6.7 229.9-20.1 294.6z"/></svg>