<svg xmlns="http://www.w3.org/2000/svg" xml:space="preserve" style="enable-background:new 0 0 1000 1000" viewBox="0 0 1000 1000"><path d="M1000 500C1000 223.8 776.2 0 500 0S0 223.8 0 500c0 213.7 131 393.1 316.5 465.7-4-38.3-8.1-98.8 2-143.1 10.1-38.3 58.5-248 58.5-248s-14.1-30.2-14.1-74.6c0-68.5 40.3-121 90.7-121 42.3 0 62.5 32.3 62.5 70.6 0 42.3-28.2 106.9-42.3 167.3-10.1 48.4 26.2 88.7 74.6 88.7 88.7 0 157.3-92.7 157.3-227.8 0-121-86.7-203.6-207.7-203.6-143.1 0-225.8 106.9-225.8 215.7 0 44.4 16.1 90.7 36.3 114.9 4 4 4 10.1 4 14.1-4 16.1-14.1 50.4-14.1 56.5-2 10.1-8.1 12.1-18.1 8.1-62.5-30.2-100.8-121-100.8-195.6 0-157.3 114.9-302.4 330.6-302.4 173.4 0 308.5 125 308.5 290.3 0 171.4-108.9 310.5-260.1 310.5-50.4 0-98.8-26.2-114.9-58.5 0 0-24.2 96.8-30.2 119-12.1 44.4-42.3 98.8-62.5 131C397.2 994 447.6 1000 500 1000c276.2 0 500-223.8 500-500z"/></svg>