<svg xmlns="http://www.w3.org/2000/svg" width="836" height="289" fill="none"><g fill="#fff" clip-path="url(#a)"><path d="M17.197 156.729c9.497 0 17.197-7.698 17.197-17.193 0-9.496-7.7-17.194-17.197-17.194C7.699 122.342 0 130.04 0 139.536c0 9.495 7.7 17.193 17.197 17.193ZM818.803 156.729c9.498 0 17.197-7.698 17.197-17.193 0-9.496-7.699-17.194-17.197-17.194-9.497 0-17.197 7.698-17.197 17.194 0 9.495 7.7 17.193 17.197 17.193ZM73.861 195.177s0-1.29.552-1.47c2.94-1.104 12.685-1.836 12.685-12.498V79.564c-.552-9.924-9.925-10.661-12.685-11.765-.552-.186-.552-1.284-.552-1.284h20.588v92.268l63.421-79.219c4.597-6.432.552-10.661-2.208-11.765-.552-.186-.552-1.284-.552-1.284h26.469s.186 1.103-.366 1.284c-2.754 1.104-8.274.186-18.014 10.842l-.366.552-40.996 51.279c31.251 15.808 47.795 100.907 128.498 92.082 0 0 .185 1.104-.552 1.47-63.055 35.29-100.554-70.946-130.887-89.694l-24.452 30.508v17.093c.366 9.924 9.745 10.661 12.685 11.765.552.186.552 1.47.552 1.47H73.856l.005.011ZM94.449 66.515h13.238s0 1.103-.552 1.284c-2.941 1.104-12.32 1.836-12.686 11.765v-13.05Z"/><path d="M241.333 63.755c36.951 0 67.099 30.142 67.099 67.088s-30.148 67.088-67.099 67.088c-36.952 0-67.099-30.142-67.099-67.088 0-36.945 30.147-67.088 67.099-67.088Zm0 130.498c34.929 0 58.824-28.486 58.824-63.41 0-34.924-23.9-63.41-58.824-63.41s-58.825 28.492-58.825 63.41c0 34.918 23.901 63.41 58.825 63.41ZM409.723 83.422s-1.285 0-1.471-.552c-1.103-2.94-1.836-12.683-12.499-12.683h-32.907v111.017c0 10.661 9.925 11.394 12.865 12.497.552.186.552 1.47.552 1.47h-34.011s0-1.289.552-1.47c2.94-1.103 12.685-1.836 12.685-12.497V70.192h-32.907c-10.663 0-11.396 9.744-12.5 12.683-.185.552-1.47.552-1.47.552V66.52h101.105v16.907l.006-.005ZM417.074 66.515h41.362c59.01 0 60.295 65.618 3.859 68.372 25.736 13.049 33.273 56.612 58.272 57.164 0 0 .186.918-.552 1.47-2.022 1.656-4.782 2.208-7.351 2.208-3.678 0-6.985-1.285-8.455-2.208-19.856-10.661-26.655-57.716-58.092-58.448h-8.455v46.136c0 10.662 9.925 11.394 12.866 12.498.552.186.552 1.47.552 1.47h-34.006s0-1.29.552-1.47c2.94-1.104 12.685-1.836 12.685-12.498V80.302c0-10.662-9.745-11.394-12.685-12.498-.552-.186-.552-1.284-.552-1.284v-.005Zm20.588 3.677V131.4h15.992c55.518 0 55.518-61.208 0-61.208h-15.992ZM606.047 191.499c10.663 0 16.729-9.743 17.833-12.683.186-.552 1.285-.552 1.285-.552l-5.329 16.907h-91.918s0-1.289.552-1.47c2.941-1.103 12.686-1.836 12.686-12.497V80.302c0-10.662-9.745-11.394-12.686-12.498-.552-.186-.552-1.284-.552-1.284h33.826s0 1.104-.552 1.284c-2.94 1.104-12.685 1.836-12.685 12.498v100.907c0 9.558 7.722 10.295 11.581 10.295h45.959v-.005Z"/><path d="M654.819 109.176s0 1.103-.552 1.284c-2.941 1.104-12.314 1.836-12.866 11.579l.186 70.394c0 34.738-13.238 47.973-37.504 47.973-7.723 0-20.588-3.306-27.759-10.661l.186-20.033s1.104.186 1.104.552c3.306 20.219 18.2 26.65 26.655 26.65 18.937 0 29.967-14.519 29.967-44.481l-.186-70.394v.186c-.552-9.924-9.925-10.661-12.685-11.765-.552-.186-.552-1.284-.552-1.284h34.011-.005ZM722.958 66.515l51.659 116.345c3.859 7.35 11.029 9.923 13.789 10.841.552.186.552 1.47.552 1.47h-30.885s0-1.289.552-1.47c2.755-1.103 10.478-1.836 6.985-11.213l-9.193-20.77h-75.74l-9.192 20.585c-3.493 9.371 4.044 10.295 6.984 11.393.552.186.552 1.47.552 1.47h-26.103s0-1.289.552-1.47c2.76-.918 9.926-3.492 13.79-10.842l48.533-109.175c-3.679-3.492-7.903-5.148-9.926-5.88-.552-.186-.552-1.284-.552-1.284h17.648-.005Zm-40.625 91.53h72.428L719.28 78.46c-.186-.552-.552-1.104-.918-1.655l-36.034 81.24h.005ZM293.889 213.432l-2.325 4.511c6.837-2.595 13.805-4.644 20.774-6.421 6.014-1.64 29.93-8.884 26.788 1.231-.409 1.369-1.911 1.231-1.778.138l.685-1.778c-2.872-3.826-12.845-.817-18.312.409-9.84 2.186-19.68 5.19-29.521 8.745-4.103 7.514-8.747 15.029-13.12 22.548 6.151-1.501 12.574-2.457 13.667-.546-.138.955-1.502 1.778-2.049.955-.547-.955-6.969.271-12.844 1.778-3.01 5.328-6.014 10.794-8.471 16.122 2.324 7.105 2.733 17.215-3.689 19.948-.271.138-.547 0-.817 0-5.191-5.058-1.911-9.701 2.595-19.269v-.271c-1.778-5.874-6.152-10.109-13.667-10.794-4.374-.276-14.899 1.64-18.041-.955v-.817c2.458-5.328 14.076-10.932 18.858-13.527 11.889-6.421 24.192-12.163 36.766-16.806l2.734-5.466c.955-1.37 2.186-.956 1.778.27l-.011-.005Zm-28.29 33.066c1.778-.817 5.467-2.048 9.703-3.141 4.235-7.377 8.747-14.758 12.711-22.273-9.978 3.826-20.089 8.337-30.067 13.257-3.965 2.048-20.366 10.385-22.276 14.073 1.502.547 5.058.685 6.698.685 9.023 0 16.947-.547 22.138 5.466.685.955 1.502 2.457 2.187 4.372 2.324-4.51 4.782-9.016 7.377-13.389-3.826.956-7.107 2.049-8.2 2.457-1.093.271-1.093-.817-.271-1.501v-.006Zm.547 17.762c-1.911 4.373-3.142 8.745-3.965 12.98l1.911 2.049c.276-.138.547-.271.817-.271 2.049-3.555 1.916-7.106 1.64-10.247l-.408-4.511h.005Z"/><path d="M291.288 242.81c-2.595 7.106-5.605 14.35-7.924 21.588 3.689-5.466 5.467-9.977 11.618-12.842.547-.276.685-.276.956-.138l1.916 2.048c.546.955-.409 1.91-1.502 1.64-.547-.685-1.094-1.231-1.64-1.778-5.738 2.871-8.339 9.292-11.889 14.349-.276.271-.409.547-1.094.685h-.547c-.546-.271-.684-.271-.546-.955 2.595-8.337 6.013-16.669 9.017-24.868.956-1.363 2.187-.955 1.641.276l-.006-.005ZM303.862 254.289c-.685 1.777-2.325 4.096-2.325 5.874 0 5.875 14.076-1.502 17.356-4.511 1.094-.817 1.916 0 .956 1.094-3.965 3.555-18.996 11.202-20.228 5.195-.409-2.457 1.502-5.328 2.463-7.923.955-1.369 2.187-.955 1.778.271Zm7.516-14.212c-1.778 2.186-2.596 4.097-3.551 6.697-.547 1.369-2.049 1.231-1.916.138 1.093-2.871 1.916-4.919 3.965-7.381 1.093-.956 1.778-.547 1.502.546Z"/><path d="M321.903 253.063c4.511-.547 9.431-3.142 13.12-1.64.271.271.271.409.271.685-.955 6.15-11.072 7.922-13.529 13.388-.956 1.778-.547 3.009 0 4.235 7.653-6.283 16.538-11.887 21.045-14.211 1.502-.685 1.64.817.27 1.502-8.338 4.234-14.214 8.336-20.774 13.935.685 1.093 1.502 2.186 1.916 3.418 1.502 5.328-10.934 14.758-16.809 14.62l-.685-.276c0-4.782 6.152-11.617 13.667-17.9-.684-1.502-1.231-3.279-.546-5.466 1.778-5.466 11.48-7.244 13.258-12.434-3.418-.684-7.791 1.502-11.618 1.916-.818-.276-.685-1.369.408-1.778l.006.006Zm-.956 18.993-4.92 4.643c-1.911 1.916-7.515 7.923-7.377 10.523 4.235.138 9.017-4.511 11.889-7.79 2.324-2.871 1.502-5.057.408-7.382v.006Z"/><path d="M343.356 257.435c-.685 1.778-1.093 3.418-.546 4.235 1.778 3.009 12.982-3.688 15.991-5.874 1.232-.956 2.049.276.685 1.231-3.142 2.324-17.903 10.794-18.587 5.874-.271-3.688 3.965-13.388 9.017-14.349 9.841-1.916.409 7.652-6.284 8.883h-.276Zm1.094-1.915c3.418-.817 10.387-5.058 6.968-5.466-2.324-.138-5.196 2.595-6.968 5.466Z"/><path d="M365.632 242.81c-2.595 7.106-5.604 14.35-7.924 21.588 3.689-5.466 5.467-9.977 11.619-12.842.546-.276.684-.276.955-.138l1.911 2.048c.546.955-.409 1.91-1.502 1.64-.547-.685-1.094-1.231-1.641-1.778-5.737 2.871-8.338 9.292-11.889 14.349-.27.271-.408.547-1.093.685h-.547c-.546-.271-.684-.271-.546-.955 2.595-8.337 6.013-16.669 9.017-24.868.956-1.363 2.187-.955 1.64.276v-.005ZM387.091 250.192c-1.911-.685-10.387 3.009-9.702 5.19.684 2.462 4.782 2.462 7.377 4.102 3.689-1.916 7.378-3.28 8.885-3.964 1.094 0 1.232.955 0 1.64-1.916.817-4.782 1.915-7.791 3.279.408.409.684.955.817 1.502.955 3.141-8.2 10.109-10.525 7.652-2.595-2.733 1.64-6.15 6.698-9.016-2.871-1.502-7.924-1.91-7.383-4.373.685-4.919 9.432-9.016 13.121-7.652.547.955-.409 1.91-1.502 1.64h.005Zm-3.004 11.202c-3.142 1.64-5.876 3.689-6.969 5.875 1.502 2.324 7.924-1.778 7.516-4.511 0-.546-.271-.955-.547-1.369v.005Z"/><path d="M420.71 240.624c-7.245 1.777-23.646 9.154-26.788 16.944 5.605 4.919 16.671-.955 24.872-2.048 1.231 0 1.231 1.369-.271 1.777-3.142.409-20.636 6.698-24.463 3.418l-1.231-.685c-1.916 5.604-3.01 11.203-2.734 16.945 0 .955-1.364 1.778-1.91.955-.138-6.968 1.369-13.527 3.688-19.677-.138-1.093.409-2.187 1.37-3.418 6.831-15.989 19.542-30.471 28.974-49.193 1.093-.956 1.911-.547 1.502.546-7.515 15.714-19.681 30.334-27.196 45.368 7.245-5.875 20.498-11.617 24.192-12.572 1.093 0 1.231.955 0 1.64h-.005Z"/><path d="M421.936 253.195c-4.374 3.965-6.423 12.163-.818 13.257 8.063 1.501 28.428-9.017 34.712-16.536l-1.093-.817c-.547-.823.685-1.916 1.502-1.64l1.778 1.231c.271.276.271.409 0 .955-9.023 11.07-25.965 17.9-37.859 18.722-7.925.409-3.556-12.433.817-16.259 1.093-.818 1.911 0 .955 1.093l.006-.006Zm6.151-12.025c-.684.956-1.093 1.778-1.502 3.004-.546 1.369-2.049 1.231-1.911.138.547-1.502 1.094-2.457 1.911-3.688 1.094-.956 1.916-.547 1.502.546ZM480.973 239.26c5.19-3.964 13.529-6.968 22.276-8.884 3.688-6.421 7.377-12.295 10.249-17.082l.138-.547c.955-1.369 2.186-.955 1.778.271-.276.685-.547 1.369-.956 2.048 0 .276-.138.685-.138.818-.27.408-.684.955-.817 1.369-1.911 4.235-4.373 8.469-7.245 12.571 12.574-2.324 25.832-2.186 32.117.818.546.955-1.232 2.457-2.325 2.186-4.782-3.279-18.449-3.417-31.161-1.093-9.018 15.443-19.272 34.844-12.712 40.719.685.955-.409 1.915-1.502 1.639-5.738-5.057-.547-18.855 6.836-32.928-4.92 5.737-10.111 11.478-15.169 16.944.409.547.685 1.232.955 2.049.956 3.826-11.751 17.899-16.538 16.536-.547-.138-.409-.409-.409-.818 1.093-4.234 7.924-11.749 13.12-17.353-2.048-1.231-5.604-1.501-6.013-4.234-.955-4.92 9.564-12.163 14.352-12.71 1.231 0 1.093 1.364-.409 1.778-3.689.408-10.387 5.195-12.027 9.976 1.369 1.778 3.827 2.457 5.605 3.689 1.502-1.64 2.733-2.871 3.689-3.965 6.284-7.243 12.297-13.802 17.356-20.362l.27-.546c-8.338 1.778-16.124 4.643-20.365 8.199-1.093.817-2.049 0-.955-1.093v.005Zm-.138 20.495-5.738 6.421c-.138.138 0-.138.271-.409-2.458 2.733-5.876 6.421-6.969 9.292 4.235-1.369 13.391-10.794 12.982-14.073-.138-.547-.276-.956-.546-1.231Z"/><path d="M504.475 254.156c-2.458 6.697-2.187 9.43 6.013 3.141 1.502-1.093 2.872-2.324 3.827-3.826 0-.138.271-.27.271-.546.817-1.093 2.048-.818 1.778.276l-.138.138c-.685 1.777-.547 3.279-.409 4.919.409 3.964 6.014-.817 8.338-2.595 1.094-.817 1.916 0 .956 1.093-3.418 2.595-10.525 8.061-11.205 2.457-.138-.817-.27-1.778-.138-2.733l-2.457 2.049c-13.391 11.478-9.979-3.827-7.654-5.604 1.364-.955 2.187.276.818 1.231Z"/><path d="M533.587 251.285c-4.235.955-13.12 8.199-11.204 12.163 2.871-.138 6.969-3.28 11.204-7.652.818-10.386 7.107-22.273 14.076-32.111 1.231-1.64 9.023-13.119 13.121-12.572 6.151.684-3.827 16.668-4.921 18.446-3.688 5.875-11.889 17.9-20.365 26.507-.817 12.981 7.245 12.163 18.179-.546 1.093-1.093 2.457-.409 1.231.817-2.325 2.733-4.374 5.328-7.792 7.514-7.653 4.782-13.258 2.457-13.529-4.643l-.138-1.093c-3.418 3.279-6.831 5.736-9.84 6.83-5.329 2.048-2.734-4.097-1.37-6.698 2.734-4.643 6.837-7.652 11.343-8.607 1.093 0 1.231.955 0 1.64l.005.005Zm2.325 1.369c-.138.271-.138.547-.138.817 7.924-8.745 16.262-20.77 18.858-24.867.955-1.502 9.156-15.713 5.196-15.713-2.595 0-9.978 10.385-10.658 11.34-6.284 8.746-11.751 19.131-13.258 28.423Z"/><path d="M555.996 254.289c-.685 1.777-2.325 4.096-2.325 5.874 0 5.875 14.076-1.502 17.356-4.511 1.094-.817 1.911 0 .956 1.094-3.965 3.555-18.996 11.202-20.228 5.195-.408-2.457 1.502-5.328 2.458-7.923.955-1.369 2.186-.955 1.778.271h.005Zm7.516-14.212c-1.778 2.186-2.596 4.097-3.551 6.697-.547 1.369-2.049 1.231-1.916.138 1.093-2.871 1.916-4.919 3.965-7.381 1.093-.956 1.778-.547 1.502.546Z"/><path d="M572.12 253.742a3.02 3.02 0 0 1 1.094-.685v-.138c8.062 2.325 16.947-2.457 25.556-2.457 1.911 0 9.978-.546 7.245 3.28-.685.955-2.187.685-1.369-.547-.138 0-.271 0-.409-.138-2.325-.955-3.01-1.093-6.152-.817-7.515.547-15.031 3.55-21.867 3.142.955 3.417-3.418 9.563-6.969 12.025-.547.27-.817.138-1.231.138-3.281-1.231 2.324-10.794 3.142-12.98.276-.409.684-.685.955-.818l.005-.005Zm1.778 1.369-1.093-.271c-1.231 3.28-3.965 7.653-3.827 10.932 2.872-1.91 7.245-9.016 4.92-10.656v-.005ZM452.189 44.768l11.825-26.184-7.329-3.02c.35 1.64.254 3.572-.388 5.504-1.444 4.357-4.909 6.087-8.126 5.646-5.265-.727-6.173-6.156-4.729-10.507.722-2.187 1.996-3.954 3.471-5.042l-9.118-3.672c.557 1.884.265 4.033-.075 6.257-.971 6.405-5.557 9.223-9.325 8.613-4.867-.78-6.401-4.835-6.035-9.993.265-3.762 2.41-6.856 4.825-8.671L417.997 0l-9.187 3.699c2.409 1.815 4.559 4.914 4.824 8.671.367 5.158-1.167 9.213-6.034 9.993-3.769.61-8.355-2.208-9.321-8.613-.334-2.224-.631-4.373-.074-6.257l-9.124 3.672c1.476 1.094 2.75 2.86 3.477 5.042 1.443 4.351.536 9.78-4.729 10.507-3.217.446-6.683-1.29-8.126-5.646-.643-1.932-.738-3.864-.382-5.503l-7.336 3.02 11.911 26.183H452.189Z"/></g><defs><clipPath id="a"><path fill="#fff" d="M0 0h836v289H0z"/></clipPath></defs></svg>