<?xml version="1.0" encoding="utf-8"?>
<!-- Generator: Adobe Illustrator 23.0.3, SVG Export Plug-In . SVG Version: 6.00 Build 0)  -->
<svg version="1.1" id="Layer_1" xmlns="http://www.w3.org/2000/svg" xmlns:xlink="http://www.w3.org/1999/xlink" x="0px" y="0px"
	 viewBox="0 0 470 132" style="enable-background:new 0 0 470 132;" xml:space="preserve">
<style type="text/css">
	.st0{clip-path:url(#SVGID_1_);}
	.st1{fill:#FFFFFF;}
</style>
<g>
	<defs>
		<rect id="SVGID_3_" x="41.6" y="-1" width="384.7" height="133"/>
	</defs>
	<clipPath id="SVGID_1_">
		<use xlink:href="#SVGID_3_"  style="overflow:visible;"/>
	</clipPath>
	<g class="st0">
		<path class="st1" d="M49.5,71.1c4.4,0,7.9-3.5,7.9-7.9c0-4.4-3.5-7.9-7.9-7.9c-4.4,0-7.9,3.5-7.9,7.9
			C41.6,67.6,45.2,71.1,49.5,71.1z M418.5,71.1c4.4,0,7.9-3.5,7.9-7.9c0-4.4-3.5-7.9-7.9-7.9c-4.4,0-7.9,3.5-7.9,7.9
			C410.5,67.6,414.1,71.1,418.5,71.1z M75.6,88.8c0,0,0-0.6,0.3-0.7c1.4-0.5,5.8-0.8,5.8-5.8V35.6c-0.3-4.6-4.6-4.9-5.8-5.4
			c-0.3-0.1-0.3-0.6-0.3-0.6h9.5v42.5l29.2-36.5c2.1-3,0.3-4.9-1-5.4c-0.3-0.1-0.3-0.6-0.3-0.6h12.2c0,0,0.1,0.5-0.2,0.6
			c-1.3,0.5-3.8,0.1-8.3,5l-0.2,0.3L97.7,59c14.4,7.3,22,46.4,59.1,42.4c0,0,0.1,0.5-0.3,0.7c-29,16.2-46.3-32.6-60.2-41.3l-11.3,14
			v7.9c0.2,4.6,4.5,4.9,5.8,5.4c0.3,0.1,0.3,0.7,0.3,0.7L75.6,88.8L75.6,88.8L75.6,88.8z M85.1,29.6h6.1c0,0,0,0.5-0.3,0.6
			c-1.4,0.5-5.7,0.8-5.8,5.4V29.6L85.1,29.6z"/>
		<path class="st1" d="M152.7,28.3c17,0,30.9,13.9,30.9,30.9s-13.9,30.9-30.9,30.9c-17,0-30.9-13.9-30.9-30.9
			C121.8,42.2,135.7,28.3,152.7,28.3L152.7,28.3z M152.7,88.4c16.1,0,27.1-13.1,27.1-29.2S168.8,30,152.7,30s-27.1,13.1-27.1,29.2
			S136.6,88.4,152.7,88.4L152.7,88.4z M230.2,37.4c0,0-0.6,0-0.7-0.3c-0.5-1.4-0.8-5.8-5.8-5.8h-15.1v51.1c0,4.9,4.6,5.2,5.9,5.8
			c0.3,0.1,0.3,0.7,0.3,0.7h-15.7c0,0,0-0.6,0.3-0.7c1.4-0.5,5.8-0.8,5.8-5.8V31.3h-15.1c-4.9,0-5.2,4.5-5.8,5.8
			c-0.1,0.3-0.7,0.3-0.7,0.3v-7.8h46.5L230.2,37.4L230.2,37.4L230.2,37.4z M233.6,29.6h19c27.2,0,27.7,30.2,1.8,31.5
			c11.8,6,15.3,26.1,26.8,26.3c0,0,0.1,0.4-0.3,0.7c-0.9,0.8-2.2,1-3.4,1c-1.7,0-3.2-0.6-3.9-1c-9.1-4.9-12.3-26.6-26.7-26.9H243
			v21.2c0,4.9,4.6,5.2,5.9,5.8c0.3,0.1,0.3,0.7,0.3,0.7h-15.6c0,0,0-0.6,0.3-0.7c1.4-0.5,5.8-0.8,5.8-5.8V36c0-4.9-4.5-5.2-5.8-5.8
			C233.6,30.1,233.6,29.6,233.6,29.6C233.6,29.6,233.6,29.6,233.6,29.6z M243,31.3v28.2h7.4c25.5,0,25.5-28.2,0-28.2
			C250.4,31.3,243,31.3,243,31.3z M320.5,87.1c4.9,0,7.7-4.5,8.2-5.8c0.1-0.3,0.6-0.3,0.6-0.3l-2.5,7.8h-42.3c0,0,0-0.6,0.3-0.7
			c1.4-0.5,5.8-0.8,5.8-5.8V36c0-4.9-4.5-5.2-5.8-5.8c-0.3-0.1-0.3-0.6-0.3-0.6h15.6c0,0,0,0.5-0.3,0.6c-1.4,0.5-5.8,0.8-5.8,5.8
			v46.4c0,4.4,3.6,4.7,5.3,4.7L320.5,87.1L320.5,87.1L320.5,87.1z"/>
		<path class="st1" d="M343,49.2c0,0,0,0.5-0.3,0.6c-1.4,0.5-5.7,0.8-5.9,5.3l0.1,32.4c0,16-6.1,22.1-17.3,22.1
			c-3.6,0-9.5-1.5-12.8-4.9l0.1-9.2c0,0,0.5,0.1,0.5,0.3c1.5,9.3,8.4,12.3,12.3,12.3c8.7,0,13.8-6.7,13.8-20.5l-0.1-32.4v0.1
			c-0.3-4.6-4.6-4.9-5.8-5.4c-0.3-0.1-0.3-0.6-0.3-0.6H343L343,49.2L343,49.2z M374.3,29.6l23.8,53.5c1.8,3.4,5.1,4.6,6.3,5
			c0.3,0.1,0.3,0.7,0.3,0.7h-14.2c0,0,0-0.6,0.3-0.7c1.3-0.5,4.8-0.8,3.2-5.2l-4.2-9.6h-34.9l-4.2,9.5c-1.6,4.3,1.9,4.7,3.2,5.2
			c0.3,0.1,0.3,0.7,0.3,0.7h-12c0,0,0-0.6,0.3-0.7c1.3-0.4,4.6-1.6,6.3-5L371,32.9c-1.7-1.6-3.6-2.4-4.6-2.7
			c-0.3-0.1-0.3-0.6-0.3-0.6L374.3,29.6L374.3,29.6L374.3,29.6z M355.6,71.7H389l-16.3-36.6c-0.1-0.3-0.3-0.5-0.4-0.8L355.6,71.7
			L355.6,71.7z M176.9,97.2l-1.1,2.1c3.1-1.2,6.4-2.1,9.6-3c2.8-0.8,13.8-4.1,12.3,0.6c-0.2,0.6-0.9,0.6-0.8,0.1l0.3-0.8
			c-1.3-1.8-5.9-0.4-8.4,0.2c-4.5,1-9.1,2.4-13.6,4c-1.9,3.5-4,6.9-6,10.4c2.8-0.7,5.8-1.1,6.3-0.3c-0.1,0.4-0.7,0.8-0.9,0.4
			c-0.3-0.4-3.2,0.1-5.9,0.8c-1.4,2.5-2.8,5-3.9,7.4c1.1,3.3,1.3,7.9-1.7,9.2c-0.1,0.1-0.3,0-0.4,0c-2.4-2.3-0.9-4.5,1.2-8.9v-0.1
			c-0.8-2.7-2.8-4.7-6.3-5c-2-0.1-6.9,0.8-8.3-0.4v-0.4c1.1-2.5,6.5-5,8.7-6.2c5.5-3,11.1-5.6,16.9-7.7l1.3-2.5
			C176.5,96.5,177.1,96.7,176.9,97.2L176.9,97.2L176.9,97.2z M163.9,112.4c0.8-0.4,2.5-0.9,4.5-1.4c1.9-3.4,4-6.8,5.8-10.3
			c-4.6,1.8-9.2,3.8-13.8,6.1c-1.8,0.9-9.4,4.8-10.3,6.5c0.7,0.3,2.3,0.3,3.1,0.3c4.2,0,7.8-0.3,10.2,2.5c0.3,0.4,0.7,1.1,1,2
			c1.1-2.1,2.2-4.1,3.4-6.2c-1.8,0.4-3.3,0.9-3.8,1.1C163.5,113.3,163.5,112.8,163.9,112.4L163.9,112.4L163.9,112.4z M164.1,120.6
			c-0.9,2-1.4,4-1.8,6l0.9,0.9c0.1-0.1,0.3-0.1,0.4-0.1c0.9-1.6,0.9-3.3,0.8-4.7L164.1,120.6L164.1,120.6L164.1,120.6z"/>
		<path class="st1" d="M175.7,110.7c-1.2,3.3-2.6,6.6-3.6,9.9c1.7-2.5,2.5-4.6,5.3-5.9c0.3-0.1,0.3-0.1,0.4-0.1l0.9,0.9
			c0.3,0.4-0.2,0.9-0.7,0.8c-0.3-0.3-0.5-0.6-0.8-0.8c-2.6,1.3-3.8,4.3-5.5,6.6c-0.1,0.1-0.2,0.3-0.5,0.3H171
			c-0.3-0.1-0.3-0.1-0.3-0.4c1.2-3.8,2.8-7.7,4.1-11.4C175.4,110,175.9,110.2,175.7,110.7L175.7,110.7L175.7,110.7z M181.5,116
			c-0.3,0.8-1.1,1.9-1.1,2.7c0,2.7,6.5-0.7,8-2.1c0.5-0.4,0.9,0,0.4,0.5c-1.8,1.6-8.7,5.2-9.3,2.4c-0.2-1.1,0.7-2.5,1.1-3.6
			C181.1,115.3,181.7,115.5,181.5,116z M184.9,109.5c-0.8,1-1.2,1.9-1.6,3.1c-0.3,0.6-0.9,0.6-0.9,0.1c0.5-1.3,0.9-2.3,1.8-3.4
			C184.7,108.8,185.1,109,184.9,109.5L184.9,109.5z"/>
		<path class="st1" d="M189.8,115.5c2.1-0.3,4.3-1.4,6-0.8c0.1,0.1,0.1,0.2,0.1,0.3c-0.4,2.8-5.1,3.6-6.2,6.2
			c-0.4,0.8-0.3,1.4,0,1.9c3.5-2.9,7.6-5.5,9.7-6.5c0.7-0.3,0.8,0.4,0.1,0.7c-3.8,1.9-6.5,3.8-9.6,6.4c0.3,0.5,0.7,1,0.9,1.6
			c0.7,2.5-5,6.8-7.7,6.7l-0.3-0.1c0-2.2,2.8-5.3,6.3-8.2c-0.3-0.7-0.6-1.5-0.3-2.5c0.8-2.5,5.3-3.3,6.1-5.7
			c-1.6-0.3-3.6,0.7-5.3,0.9C189.2,116.1,189.3,115.6,189.8,115.5L189.8,115.5L189.8,115.5z M189.3,124.2l-2.3,2.1
			c-0.9,0.9-3.5,3.6-3.4,4.8c1.9,0.1,4.1-2.1,5.5-3.6C190.2,126.3,189.8,125.3,189.3,124.2L189.3,124.2L189.3,124.2z"/>
		<path class="st1" d="M199.6,117.5c-0.3,0.8-0.5,1.6-0.3,1.9c0.8,1.4,6-1.7,7.4-2.7c0.6-0.4,0.9,0.1,0.3,0.6
			c-1.4,1.1-8.2,5-8.6,2.7c-0.1-1.7,1.8-6.2,4.1-6.6c4.5-0.9,0.2,3.5-2.9,4.1L199.6,117.5L199.6,117.5z M200.2,116.6
			c1.6-0.4,4.8-2.3,3.2-2.5C202.3,114,201,115.3,200.2,116.6z"/>
		<path class="st1" d="M209.9,110.7c-1.2,3.3-2.6,6.6-3.6,9.9c1.7-2.5,2.5-4.6,5.3-5.9c0.3-0.1,0.3-0.1,0.4-0.1l0.9,0.9
			c0.3,0.4-0.2,0.9-0.7,0.8c-0.3-0.3-0.5-0.6-0.8-0.8c-2.6,1.3-3.8,4.3-5.5,6.6c-0.1,0.1-0.2,0.3-0.5,0.3h-0.3
			c-0.3-0.1-0.3-0.1-0.3-0.4c1.2-3.8,2.8-7.7,4.1-11.4C209.6,110,210.2,110.2,209.9,110.7L209.9,110.7L209.9,110.7z M219.8,114.1
			c-0.9-0.3-4.8,1.4-4.5,2.4c0.3,1.1,2.2,1.1,3.4,1.9c1.7-0.9,3.4-1.5,4.1-1.8c0.5,0,0.6,0.4,0,0.8c-0.9,0.4-2.2,0.9-3.6,1.5
			c0.2,0.2,0.3,0.4,0.4,0.7c0.4,1.4-3.8,4.7-4.8,3.5c-1.2-1.3,0.8-2.8,3.1-4.1c-1.3-0.7-3.6-0.9-3.4-2c0.3-2.3,4.3-4.1,6-3.5
			C220.7,113.8,220.3,114.3,219.8,114.1L219.8,114.1L219.8,114.1z M218.4,119.3c-1.4,0.8-2.7,1.7-3.2,2.7c0.7,1.1,3.6-0.8,3.5-2.1
			C218.6,119.7,218.5,119.5,218.4,119.3L218.4,119.3L218.4,119.3z"/>
		<path class="st1" d="M235.2,109.7c-3.3,0.8-10.9,4.2-12.3,7.8c2.6,2.3,7.7-0.4,11.4-0.9c0.6,0,0.6,0.6-0.1,0.8
			c-1.4,0.2-9.5,3.1-11.3,1.6l-0.6-0.3c-0.9,2.6-1.4,5.2-1.3,7.8c0,0.4-0.6,0.8-0.9,0.4c-0.1-3.2,0.6-6.2,1.7-9.1
			c-0.1-0.5,0.2-1,0.6-1.6c3.1-7.4,9-14,13.3-22.6c0.5-0.4,0.9-0.3,0.7,0.3c-3.5,7.2-9.1,14-12.5,20.9c3.3-2.7,9.4-5.3,11.1-5.8
			C235.8,109,235.8,109.4,235.2,109.7L235.2,109.7z"/>
		<path class="st1" d="M235.8,115.5c-2,1.8-3,5.6-0.4,6.1c3.7,0.7,13.1-4.1,16-7.6l-0.5-0.4c-0.3-0.4,0.3-0.9,0.7-0.8l0.8,0.6
			c0.1,0.1,0.1,0.2,0,0.4c-4.2,5.1-11.9,8.2-17.4,8.6c-3.6,0.2-1.6-5.7,0.4-7.5C235.9,114.6,236.2,115,235.8,115.5L235.8,115.5
			L235.8,115.5z M238.6,110c-0.3,0.4-0.5,0.8-0.7,1.4c-0.3,0.6-0.9,0.6-0.9,0.1c0.3-0.7,0.5-1.1,0.9-1.7
			C238.5,109.3,238.8,109.5,238.6,110z M263,109.1c2.4-1.8,6.2-3.2,10.3-4.1c1.7-3,3.4-5.7,4.7-7.9l0.1-0.3c0.4-0.6,1-0.4,0.8,0.1
			c-0.1,0.3-0.3,0.6-0.4,0.9c0,0.1-0.1,0.3-0.1,0.4c-0.1,0.2-0.3,0.4-0.4,0.6c-0.9,1.9-2,3.9-3.3,5.8c5.8-1.1,11.9-1,14.8,0.4
			c0.3,0.4-0.6,1.1-1.1,1c-2.2-1.5-8.5-1.6-14.3-0.5c-4.2,7.1-8.9,16-5.9,18.7c0.3,0.4-0.2,0.9-0.7,0.8c-2.6-2.3-0.3-8.7,3.1-15.2
			c-2.3,2.6-4.7,5.3-7,7.8c0.2,0.3,0.3,0.6,0.4,0.9c0.4,1.8-5.4,8.2-7.6,7.6c-0.3-0.1-0.2-0.2-0.2-0.4c0.5-1.9,3.6-5.4,6-8
			c-0.9-0.6-2.6-0.7-2.8-1.9c-0.4-2.3,4.4-5.6,6.6-5.8c0.6,0,0.5,0.6-0.2,0.8c-1.7,0.2-4.8,2.4-5.5,4.6c0.6,0.8,1.8,1.1,2.6,1.7
			c0.7-0.8,1.3-1.3,1.7-1.8c2.9-3.3,5.7-6.4,8-9.4l0.1-0.3c-3.8,0.8-7.4,2.1-9.4,3.8C262.9,110,262.5,109.6,263,109.1L263,109.1
			L263,109.1z M262.9,118.5l-2.6,3c-0.1,0.1,0-0.1,0.1-0.2c-1.1,1.3-2.7,3-3.2,4.3c1.9-0.6,6.2-5,6-6.5
			C263.1,118.9,263,118.7,262.9,118.5z"/>
		<path class="st1" d="M273.8,116c-1.1,3.1-1,4.3,2.8,1.4c0.7-0.5,1.3-1.1,1.8-1.8c0-0.1,0.1-0.1,0.1-0.3c0.4-0.5,0.9-0.4,0.8,0.1
			l-0.1,0.1c-0.3,0.8-0.3,1.5-0.2,2.3c0.2,1.8,2.8-0.4,3.8-1.2c0.5-0.4,0.9,0,0.4,0.5c-1.6,1.2-4.8,3.7-5.2,1.1
			c-0.1-0.4-0.1-0.8-0.1-1.3l-1.1,0.9c-6.2,5.3-4.6-1.8-3.5-2.6C274,115,274.4,115.5,273.8,116L273.8,116z"/>
		<path class="st1" d="M287.2,114.6c-1.9,0.4-6,3.8-5.2,5.6c1.3-0.1,3.2-1.5,5.2-3.5c0.4-4.8,3.3-10.3,6.5-14.8c0.6-0.8,4.2-6,6-5.8
			c2.8,0.3-1.8,7.7-2.3,8.5c-1.7,2.7-5.5,8.2-9.4,12.2c-0.4,6,3.3,5.6,8.4-0.3c0.5-0.5,1.1-0.2,0.6,0.4c-1.1,1.3-2,2.5-3.6,3.5
			c-3.5,2.2-6.1,1.1-6.2-2.1l-0.1-0.5c-1.6,1.5-3.1,2.6-4.5,3.1c-2.5,0.9-1.3-1.9-0.6-3.1c1.3-2.1,3.1-3.5,5.2-4
			C287.7,113.9,287.8,114.3,287.2,114.6L287.2,114.6L287.2,114.6z M288.3,115.3c-0.1,0.1-0.1,0.3-0.1,0.4c3.6-4,7.5-9.6,8.7-11.4
			c0.4-0.7,4.2-7.2,2.4-7.2c-1.2,0-4.6,4.8-4.9,5.2C291.5,106.2,289,111,288.3,115.3L288.3,115.3z"/>
		<path class="st1" d="M297.5,116c-0.3,0.8-1.1,1.9-1.1,2.7c0,2.7,6.5-0.7,8-2.1c0.5-0.4,0.9,0,0.4,0.5c-1.8,1.6-8.7,5.2-9.3,2.4
			c-0.2-1.1,0.7-2.5,1.1-3.6C297.1,115.3,297.7,115.5,297.5,116L297.5,116z M301,109.5c-0.8,1-1.2,1.9-1.6,3.1
			c-0.3,0.6-0.9,0.6-0.9,0.1c0.5-1.3,0.9-2.3,1.8-3.4C300.8,108.8,301.1,109,301,109.5L301,109.5z"/>
		<path class="st1" d="M304.9,115.8c0.1-0.1,0.3-0.2,0.5-0.3v-0.1c3.7,1.1,7.8-1.1,11.8-1.1c0.9,0,4.6-0.3,3.3,1.5
			c-0.3,0.4-1,0.3-0.6-0.3c-0.1,0-0.1,0-0.2-0.1c-1.1-0.4-1.4-0.5-2.8-0.4c-3.5,0.3-6.9,1.6-10.1,1.4c0.4,1.6-1.6,4.4-3.2,5.5
			c-0.3,0.1-0.4,0.1-0.6,0.1c-1.5-0.6,1.1-5,1.4-6C304.6,116,304.8,115.8,304.9,115.8L304.9,115.8L304.9,115.8z M305.7,116.4
			l-0.5-0.1c-0.6,1.5-1.8,3.5-1.8,5C304.8,120.4,306.8,117.2,305.7,116.4L305.7,116.4L305.7,116.4z M249.7,19.6l5.4-12.1l-3.4-1.4
			c0.2,0.8,0.1,1.6-0.2,2.5c-0.7,2-2.3,2.8-3.7,2.6c-2.4-0.3-2.8-2.8-2.2-4.8c0.3-1,0.9-1.8,1.6-2.3l-4.2-1.7c0.3,0.9,0.1,1.9,0,2.9
			c-0.4,2.9-2.6,4.2-4.3,4c-2.2-0.4-2.9-2.2-2.8-4.6c0.1-1.7,1.1-3.2,2.2-4L234-1l-4.2,1.7c1.1,0.8,2.1,2.3,2.2,4
			c0.2,2.4-0.5,4.2-2.8,4.6c-1.7,0.3-3.8-1-4.3-4c-0.2-1-0.3-2,0-2.9l-4.2,1.7c0.7,0.5,1.3,1.3,1.6,2.3c0.7,2,0.2,4.5-2.2,4.8
			c-1.5,0.2-3.1-0.6-3.7-2.6c-0.3-0.9-0.3-1.8-0.2-2.5l-3.4,1.4l5.5,12C218.3,19.6,249.7,19.6,249.7,19.6z"/>
	</g>
</g>
</svg>
